<?xml version="1.0" encoding="iso-8859-1"?>
<!-- Uploaded to: SVG Repo, www.svgrepo.com, Generator: SVG Repo Mixer Tools -->
<svg version="1.1" id="Layer_1" xmlns="http://www.w3.org/2000/svg" xmlns:xlink="http://www.w3.org/1999/xlink" 
	 viewBox="0 0 512 512" xml:space="preserve">
<rect x="32" y="208" style="fill:#FAA85F;" width="448" height="32"/>
<g>
	<rect x="96" y="160" style="fill:#72C6EF;" width="128" height="16"/>
	<rect x="288" y="160" style="fill:#72C6EF;" width="128" height="16"/>
</g>
<rect x="224" y="128" style="fill:#FAA85F;" width="64" height="48"/>
<path style="fill:#00384E;" d="M512,272v-96h-64v-48H320v-25.6c9.6-11.2,16-24,16-38.4V48h-32v16c0,14.4-14.4,25.6-32,30.4V16h-32
	v78.4c-17.6-4.8-32-16-32-30.4V48h-32v16c0,14.4,6.4,27.2,16,38.4V128H64v48H0v96h32v192H0v32h512v-32h-32V272H512z M416,160v16h-96
	v-16H416z M288,128v32v16h-64v-16v-32H288z M96,160h96v16H96V160z M32,208h32h128h128h128h32v32H32V208z M160,272v192h-32V272H160z
	 M192,272h128v192H192V272z M352,272h32v192h-32V272z M64,272h32v192H64V272z M448,464h-32V272h32V464z"/>
</svg>